TITLE ""
FILE "2Q_k_031-040.mp3" MP3
  TRACK 01 AUDIO
    TITLE "2Q_k_031-040_01"
    INDEX 01 00:00:00
  TRACK 02 AUDIO
    TITLE "2Q_k_031-040_02"
    INDEX 01 00:01:63
  TRACK 03 AUDIO
    TITLE "2Q_k_031-040_03"
    INDEX 01 00:02:35
  TRACK 04 AUDIO
    TITLE "2Q_k_031-040_04"
    INDEX 01 00:06:11
  TRACK 05 AUDIO
    TITLE "2Q_k_031-040_05"
    INDEX 01 00:06:56
  TRACK 06 AUDIO
    TITLE "2Q_k_031-040_06"
    INDEX 01 00:08:00
  TRACK 07 AUDIO
    TITLE "2Q_k_031-040_07"
    INDEX 01 00:11:55
  TRACK 08 AUDIO
    TITLE "2Q_k_031-040_08"
    INDEX 01 00:12:27
  TRACK 09 AUDIO
    TITLE "2Q_k_031-040_09"
    INDEX 01 00:14:38
  TRACK 10 AUDIO
    TITLE "2Q_k_031-040_10"
    INDEX 01 00:15:10
  TRACK 11 AUDIO
    TITLE "2Q_k_031-040_11"
    INDEX 01 00:16:72
  TRACK 12 AUDIO
    TITLE "2Q_k_031-040_12"
    INDEX 01 00:17:42
  TRACK 13 AUDIO
    TITLE "2Q_k_031-040_13"
    INDEX 01 00:21:05
  TRACK 14 AUDIO
    TITLE "2Q_k_031-040_14"
    INDEX 01 00:22:39
  TRACK 15 AUDIO
    TITLE "2Q_k_031-040_15"
    INDEX 01 00:23:09
  TRACK 16 AUDIO
    TITLE "2Q_k_031-040_16"
    INDEX 01 00:25:36
  TRACK 17 AUDIO
    TITLE "2Q_k_031-040_17"
    INDEX 01 00:26:10
  TRACK 18 AUDIO
    TITLE "2Q_k_031-040_18"
    INDEX 01 00:28:28
  TRACK 19 AUDIO
    TITLE "2Q_k_031-040_19"
    INDEX 01 00:28:73
  TRACK 20 AUDIO
    TITLE "2Q_k_031-040_20"
    INDEX 01 00:30:74
  TRACK 21 AUDIO
    TITLE "2Q_k_031-040_21"
    INDEX 01 00:36:00
  TRACK 22 AUDIO
    TITLE "2Q_k_031-040_22"
    INDEX 01 00:36:49
  TRACK 23 AUDIO
    TITLE "2Q_k_031-040_23"
    INDEX 01 00:39:03
  TRACK 24 AUDIO
    TITLE "2Q_k_031-040_24"
    INDEX 01 00:39:51
  TRACK 25 AUDIO
    TITLE "2Q_k_031-040_25"
    INDEX 01 00:42:67
  TRACK 26 AUDIO
    TITLE "2Q_k_031-040_26"
    INDEX 01 00:43:36
  TRACK 27 AUDIO
    TITLE "2Q_k_031-040_27"
    INDEX 01 00:45:29
  TRACK 28 AUDIO
    TITLE "2Q_k_031-040_28"
    INDEX 01 00:49:34
  TRACK 29 AUDIO
    TITLE "2Q_k_031-040_29"
    INDEX 01 00:50:04
  TRACK 30 AUDIO
    TITLE "2Q_k_031-040_30"
    INDEX 01 00:51:70
  TRACK 31 AUDIO
    TITLE "2Q_k_031-040_31"
    INDEX 01 00:52:40
  TRACK 32 AUDIO
    TITLE "2Q_k_031-040_32"
    INDEX 01 00:54:69
  TRACK 33 AUDIO
    TITLE "2Q_k_031-040_33"
    INDEX 01 00:55:41
  TRACK 34 AUDIO
    TITLE "2Q_k_031-040_34"
    INDEX 01 00:58:70
  TRACK 35 AUDIO
    TITLE "2Q_k_031-040_35"
    INDEX 01 01:02:29
  TRACK 36 AUDIO
    TITLE "2Q_k_031-040_36"
    INDEX 01 01:03:03
  TRACK 37 AUDIO
    TITLE "2Q_k_031-040_37"
    INDEX 01 01:05:35
  TRACK 38 AUDIO
    TITLE "2Q_k_031-040_38"
    INDEX 01 01:06:05
  TRACK 39 AUDIO
    TITLE "2Q_k_031-040_39"
    INDEX 01 01:08:59
  TRACK 40 AUDIO
    TITLE "2Q_k_031-040_40"
    INDEX 01 01:09:29
  TRACK 41 AUDIO
    TITLE "2Q_k_031-040_41"
    INDEX 01 01:13:58
  TRACK 42 AUDIO
    TITLE "2Q_k_031-040_42"
    INDEX 01 01:14:60
  TRACK 43 AUDIO
    TITLE "2Q_k_031-040_43"
    INDEX 01 01:15:32
  TRACK 44 AUDIO
    TITLE "2Q_k_031-040_44"
    INDEX 01 01:16:68
  TRACK 45 AUDIO
    TITLE "2Q_k_031-040_45"
    INDEX 01 01:17:42
  TRACK 46 AUDIO
    TITLE "2Q_k_031-040_46"
    INDEX 01 01:20:74
  TRACK 47 AUDIO
    TITLE "2Q_k_031-040_47"
    INDEX 01 01:21:46
  TRACK 48 AUDIO
    TITLE "2Q_k_031-040_48"
    INDEX 01 01:25:34
  TRACK 49 AUDIO
    TITLE "2Q_k_031-040_49"
    INDEX 01 01:27:09
  TRACK 50 AUDIO
    TITLE "2Q_k_031-040_50"
    INDEX 01 01:27:54
  TRACK 51 AUDIO
    TITLE "2Q_k_031-040_51"
    INDEX 01 01:30:08
  TRACK 52 AUDIO
    TITLE "2Q_k_031-040_52"
    INDEX 01 01:30:57
  TRACK 53 AUDIO
    TITLE "2Q_k_031-040_53"
    INDEX 01 01:33:20
  TRACK 54 AUDIO
    TITLE "2Q_k_031-040_54"
    INDEX 01 01:33:65
  TRACK 55 AUDIO
    TITLE "2Q_k_031-040_55"
    INDEX 01 01:36:57
  TRACK 56 AUDIO
    TITLE "2Q_k_031-040_56"
    INDEX 01 01:39:54
  TRACK 57 AUDIO
    TITLE "2Q_k_031-040_57"
    INDEX 01 01:40:26
  TRACK 58 AUDIO
    TITLE "2Q_k_031-040_58"
    INDEX 01 01:41:53
  TRACK 59 AUDIO
    TITLE "2Q_k_031-040_59"
    INDEX 01 01:42:25
  TRACK 60 AUDIO
    TITLE "2Q_k_031-040_60"
    INDEX 01 01:44:00
  TRACK 61 AUDIO
    TITLE "2Q_k_031-040_61"
    INDEX 01 01:44:45
  TRACK 62 AUDIO
    TITLE "2Q_k_031-040_62"
    INDEX 01 01:47:73
  TRACK 63 AUDIO
    TITLE "2Q_k_031-040_63"
    INDEX 01 01:51:73
  TRACK 64 AUDIO
    TITLE "2Q_k_031-040_64"
    INDEX 01 01:52:49
  TRACK 65 AUDIO
    TITLE "2Q_k_031-040_65"
    INDEX 01 01:54:22
  TRACK 66 AUDIO
    TITLE "2Q_k_031-040_66"
    INDEX 01 01:54:69
  TRACK 67 AUDIO
    TITLE "2Q_k_031-040_67"
    INDEX 01 01:56:46
  TRACK 68 AUDIO
    TITLE "2Q_k_031-040_68"
    INDEX 01 01:57:16
  TRACK 69 AUDIO
    TITLE "2Q_k_031-040_69"
    INDEX 01 02:00:60
  TRACK 70 AUDIO
    TITLE "2Q_k_031-040_70"
    INDEX 01 02:04:48
